<?xml version="1.0" encoding="utf-8"?>
<!-- Generator: Adobe Illustrator 21.0.0, SVG Export Plug-In . SVG Version: 6.00 Build 0)  -->
<svg version="1.1" xmlns="http://www.w3.org/2000/svg" xmlns:xlink="http://www.w3.org/1999/xlink" x="0px" y="0px"
	 viewBox="0 0 576 576" style="enable-background:new 0 0 576 576;" xml:space="preserve">
<style type="text/css">
	.st0{display:none;}
	.st1{display:inline;fill:#434243;}
	.st2{fill:#FFFFFF;}
</style>
<g id="Layer_1" class="st0">
	<path class="st1" d="M546.4,322.1l-28.7-129.6c2.4-2.2,3.9-5.2,3.9-8.7c0-6.5-5.3-11.8-11.8-11.8c-1,0-2,0.2-3,0.4l-133.7-142
		c0.6-1.4,0.9-2.9,0.9-4.4c0-6.5-5.3-11.8-11.8-11.8c-5.7,0-10.4,4-11.5,9.3L165.5,71.8c-2.1-1.7-4.7-2.8-7.6-2.8
		c-6.5,0-11.8,5.3-11.8,11.8c0,0.8,0.1,1.5,0.2,2.3L35.7,200.6c-2.9-0.8-6.2-0.5-9,1.2c-5.7,3.3-7.6,10.5-4.3,16.1
		c0.8,1.5,1.9,2.6,3.2,3.6l-10.7,87.9c-5.4,3.4-7.2,10.4-4,15.9c1.3,2.2,3.1,3.8,5.2,4.8l63.5,146.9c-1.7,2.1-2.8,4.7-2.8,7.5
		c0,6.5,5.3,11.8,11.8,11.8c3.2,0,6.1-1.3,8.3-3.4l243.3,63c1.6,4.6,6,7.9,11.1,7.9c6.5,0,11.8-5.3,11.8-11.8c0-0.1,0-0.1,0-0.2
		l130.1-93.5c1.5,0.7,3.3,1.2,5.1,1.2c6.5,0,11.8-5.3,11.8-11.8c0-2.9-1.1-5.5-2.8-7.5l37.6-94.6c0.1,0,0.2,0,0.4,0
		c6.5,0,11.8-5.3,11.8-11.8C557.1,327.6,552.4,322.7,546.4,322.1z M38.5,222.3c5.1-2.9,7.1-9.1,5.1-14.4l87.1-92.3L27.4,296.5
		l8.8-73.2C37,223,37.8,222.7,38.5,222.3z M362.2,37.8c0.9,0,1.8-0.1,2.7-0.3l127.9,135.9L177.3,79.9l176.2-46
		C355.6,36.3,358.7,37.8,362.2,37.8z M487.6,442.8l-215.2,3.6c-0.4-2.9-1.5-5.6-3.1-7.9l235-239.8L493.3,437
		C490.8,438.2,488.8,440.3,487.6,442.8z M31.4,313.5c-0.2-0.3-0.4-0.6-0.7-0.9L155.6,93.9l89.5,339c-2.3,1.3-4.3,3-5.9,5.1
		L32.1,323.7C33.4,320.5,33.3,316.7,31.4,313.5z M498.2,186.3c0.2,0.8,0.5,1.7,0.8,2.4L260.8,431.8c-1.6-0.6-3.3-1-5.1-1.1l-90-341
		c0.5-0.4,1-0.9,1.4-1.4L498.2,186.3z M235.4,448.3c0,0.3-0.1,0.6-0.1,0.9c0,0.4,0.1,0.7,0.1,1l-137,27.6c-2-2.9-5.2-4.8-8.8-5.1
		L30.1,334.9L235.4,448.3z M239.2,460.5c3.4,4.5,8.7,7.4,14.8,7.4c2.2,0,4.3-0.4,6.2-1.1l74.2,76.4l-221.1-57.2L239.2,460.5z
		 M351.3,540.1c-1.4,0-2.8,0.3-4,0.7L269,460.3c0.7-0.9,1.3-1.9,1.8-3l210.1-3.5l-123,88.4C356.1,540.9,353.8,540.1,351.3,540.1z
		 M514,225.8l22.6,100.2c-1.9,2.1-3,4.8-3,7.9c0,2.5,0.8,4.8,2.1,6.7l-30.4,75.4L514,225.8z"/>
</g>
<g id="Layer_2">
	<circle class="st2" cx="253.9" cy="449.4" r="18.6"/>
	<polygon class="st2" points="260.6,431.8 269.3,438.6 507.8,195.1 498.9,188.7 	"/>
	<circle class="st2" cx="509.7" cy="183.9" r="11.9"/>
</g>
<g id="Layer_3">
	<circle class="st2" cx="253.9" cy="449.4" r="18.6"/>
	<path class="st2" d="M243.3,447.2l1.3,10.5c0,0.1,0.1,0.2,0.2,0.2l260.4-4.9l-1.7-10.8L243.5,447
		C243.4,447,243.3,447.1,243.3,447.2z"/>
	<circle class="st2" cx="498.4" cy="447.2" r="11.9"/>
</g>
<g id="Layer_4">
	<circle class="st2" cx="253.9" cy="449.4" r="18.6"/>
	<path class="st2" d="M248.3,443.1l-3.8,4.6c0,0,0.1,3.2,0.1,3.2l100.7,103.4l8.2-7.2l-95-97.6C258.4,449.3,248.3,443,248.3,443.1z"
		/>
	<circle class="st2" cx="351.4" cy="552.2" r="11.9"/>
</g>
<g id="Layer_5">
	<circle class="st2" cx="253.9" cy="449.4" r="18.6"/>
	<circle class="st2" cx="88.4" cy="484.2" r="11.9"/>
	<polygon class="st2" points="235.4,450.3 95.6,478.4 95.6,489.3 245.8,460.2 	"/>
</g>
<g id="Layer_6">
	<circle class="st2" cx="253.9" cy="449.4" r="18.6"/>
	<circle class="st2" cx="21.4" cy="319.2" r="11.9"/>
	<polygon class="st2" points="20,329.4 237.3,449.4 239.2,438 32.1,323.7 	"/>
</g>
<g id="Layer_7">
	<circle class="st2" cx="253.9" cy="449.4" r="18.6"/>
	<circle class="st2" cx="157.8" cy="80.8" r="11.9"/>
	<polygon class="st2" points="154.6,90.3 245.1,432.9 256.3,432.9 167,88.2 	"/>
</g>
<g id="Layer_8">
	<polygon class="st2" points="501.1,187 163.2,87.1 165.5,76.4 503.3,176.4 	"/>
</g>
<g id="Layer_9">
	<polygon class="st2" points="505.1,450.3 492.7,450.3 505.5,182.6 515.3,187 	"/>
</g>
<g id="Layer_10">
	<polygon class="st2" points="492.7,445.5 357.9,542.1 363.1,551.9 498.4,454.2 	"/>
</g>
<g id="Layer_11">
	<polygon class="st2" points="340.2,555.9 96.9,492.9 95.6,481.4 347.4,546.4 	"/>
</g>
<g id="Layer_12">
	<polygon class="st2" points="15,327.4 25.1,323.7 91.1,476.1 80.5,479 	"/>
</g>
<g id="Layer_13">
	<polygon class="st2" points="30.7,312.5 155.6,93.9 153,80.8 146.3,83.1 21.4,307.3 	"/>
</g>
<g id="Layer_14">
	<circle class="st2" cx="32.3" cy="212.1" r="11.9"/>
	<g id="Layer_18_copy">
		<polyline class="st2" points="147.1,98.2 136.6,115.9 124.7,122 43.6,207.9 36.2,223.3 26.3,307.3 14.9,309.4 26.9,215.6 
			35.7,200.6 146.3,83.1 154.6,82.5 155.6,87.1 		"/>
	</g>
</g>
<g id="Layer_15_1_">
	<circle class="st2" cx="361.8" cy="25.8" r="11.9"/>
	<g id="Layer_15">
		<polygon class="st2" points="353.5,33.9 167.1,82.5 165.5,71.8 350.6,23.4 361.8,29.1 		"/>
		<polygon class="st2" points="364.8,37.4 503.5,183.9 514.5,178.4 507,178.4 506.8,172.4 373.1,30.4 		"/>
	</g>
</g>
<g id="Layer_16_1_">
	<circle class="st2" cx="545.3" cy="334.1" r="11.9"/>
	<g id="Layer_18">
		<polygon class="st2" points="515.5,182.6 547.7,327.6 545.3,346.1 506.6,442.1 500.9,423.6 505.1,415.9 535.6,340.5 536.5,325.9 
			513.7,224.6 		"/>
	</g>
</g>
</svg>
